<svg version="1.1" id="Layer_1" xmlns="http://www.w3.org/2000/svg" xmlns:xlink="http://www.w3.org/1999/xlink" x="0px" y="0px"
	 width="100%" viewBox="0 0 201 234" enable-background="new 0 0 201 234" xml:space="preserve">
<path fill="#2F76C4" opacity="1.000000" stroke="none" 
	d="
M117.000000,235.000000 
	C78.000000,235.000000 39.500004,235.000000 1.000005,235.000000 
	C1.000003,157.000000 1.000003,79.000015 1.000002,1.000016 
	C67.999992,1.000010 134.999985,1.000010 201.999969,1.000005 
	C201.999985,78.999985 201.999985,156.999969 202.000000,234.999969 
	C173.833328,235.000000 145.666672,235.000000 117.000000,235.000000 
M129.599487,210.927185 
	C130.423721,211.282654 131.247940,211.638138 132.525467,212.038132 
	C132.525467,212.038132 132.958420,212.179626 133.431992,212.498917 
	C133.974091,212.662094 134.516205,212.825272 135.002838,213.010315 
	C135.002838,213.010315 135.001236,212.950714 135.271362,213.638062 
	C136.173370,214.309738 137.010010,215.445786 137.987213,215.583389 
	C152.537415,217.632233 167.117462,218.265533 181.446152,214.368576 
	C183.926926,213.693878 185.799194,210.781830 187.962036,208.969269 
	C187.962036,208.969269 187.898621,208.948532 188.497696,208.776764 
	C188.922897,208.339478 189.348083,207.902191 189.716736,207.625793 
	C189.716736,207.625793 189.558823,207.561386 190.302277,207.623581 
	C192.766663,206.075470 195.806534,204.978973 197.497650,202.824020 
	C198.669220,201.331085 197.981628,198.379150 197.971069,195.235733 
	C200.408127,183.773605 199.309006,173.428482 190.545624,164.380249 
	C184.365555,157.999252 176.508347,155.450500 168.605911,151.558380 
	C167.076920,147.975052 164.023865,147.873566 160.877914,148.131134 
	C160.877914,148.131134 160.874893,148.202713 160.805908,147.467499 
	C160.729111,147.148438 160.704880,146.804550 160.567627,146.514038 
	C158.404526,141.935684 154.029312,137.502243 159.833160,132.444092 
	C160.252899,132.078278 159.933273,130.864090 160.049484,129.889633 
	C160.049484,129.889633 160.217346,129.954742 160.303192,129.925079 
	C160.303192,129.925079 160.461884,129.858124 161.216690,129.330582 
	C161.821960,129.257507 162.427216,129.184433 163.754257,129.491852 
	C173.276108,129.227127 182.291122,130.987686 190.701508,135.716873 
	C191.985321,136.438766 195.264679,136.303360 195.465393,135.763290 
	C196.108795,134.032166 195.740097,131.924911 195.440613,129.194168 
	C195.230820,125.260841 194.813217,121.323929 194.880798,117.395378 
	C194.929779,114.548599 193.863556,113.334435 191.160645,112.576675 
	C180.597687,109.615364 169.888260,109.245453 159.126144,110.679382 
	C152.034424,111.624268 144.626862,111.988411 139.275345,117.983589 
	C137.822113,119.611610 135.860306,120.785652 133.693314,122.555511 
	C133.488998,123.095711 133.284668,123.635910 133.084534,124.081978 
	C133.084534,124.081978 133.178543,124.088318 132.420609,124.083801 
	C127.271698,129.206161 127.386559,135.393768 129.019104,142.690002 
	C129.498627,151.511429 133.576782,158.523422 140.825211,163.177322 
	C146.720016,166.962143 153.358459,169.569382 159.529465,172.950073 
	C163.851059,175.317596 168.317352,177.667023 172.028717,180.833618 
	C175.781113,184.035217 174.947830,189.917480 170.316330,193.145569 
	C162.539886,196.322403 154.649475,197.241791 146.497818,194.574356 
	C145.688446,194.309525 144.591553,194.923370 143.001328,194.664276 
	C140.458374,193.599396 137.915405,192.534515 135.281296,191.162033 
	C135.281296,191.162033 135.526077,191.091721 135.526077,191.091721 
	C135.526077,191.091721 135.314163,191.452988 134.702606,191.174133 
	C134.492737,191.095673 134.282883,191.017212 133.836273,190.433517 
	C133.198227,190.061035 132.560181,189.688568 131.880173,189.089447 
	C131.880173,189.089447 132.037445,188.920929 131.941116,188.396606 
	C131.201294,188.017654 130.461456,187.638718 129.533524,187.377579 
	C129.533524,187.377579 129.327927,187.293915 128.803406,187.899231 
	C128.878891,195.288147 128.954391,202.677078 129.213104,210.135406 
	C129.213104,210.135406 129.250122,210.329025 129.599487,210.927185 
M88.530533,216.400803 
	C89.378510,215.961044 90.226494,215.521286 91.620903,214.922714 
	C92.099281,214.623444 92.577660,214.324173 93.580719,213.795334 
	C93.412750,212.856216 93.244774,211.917114 93.052765,210.320389 
	C93.035637,209.882111 93.018509,209.443817 93.673828,208.626923 
	C94.115364,206.771103 94.931076,204.917175 94.940567,203.059158 
	C95.035439,184.480057 95.029564,165.900116 94.953033,147.320847 
	C94.944351,145.210892 94.328247,143.103424 93.597229,140.526260 
	C92.782051,139.375870 91.966873,138.225464 90.993073,136.266830 
	C91.048660,135.173050 91.104248,134.079254 92.003197,132.990097 
	C100.328728,132.986832 108.654251,132.983566 117.616081,133.248962 
	C121.470169,134.254196 122.746033,132.555573 122.480553,128.855698 
	C122.197479,124.910675 121.997818,120.945869 122.050232,116.993530 
	C122.148674,109.570923 121.845940,109.183777 113.610535,108.311516 
	C112.248207,107.877014 110.887573,107.070358 109.523315,107.064186 
	C90.913116,106.979935 72.302078,106.958817 53.692463,107.091835 
	C52.126045,107.103027 50.568333,108.331406 48.158287,108.996719 
	C45.762524,109.623352 43.366756,110.249985 40.317192,110.942772 
	C39.879749,110.969093 39.442307,110.995415 38.556843,110.679733 
	C37.813560,110.644119 37.070278,110.608498 36.327000,110.572884 
	C36.310780,110.843964 36.294563,111.115044 36.278343,111.386124 
	C37.181309,111.561272 38.084270,111.736420 39.091171,111.926811 
	C39.091171,111.926811 39.127522,112.025375 38.875111,112.928154 
	C38.746483,118.273949 38.617859,123.619736 37.896988,128.993408 
	C37.307678,129.211365 36.718369,129.429306 36.129059,129.647263 
	C36.495735,130.243500 36.745407,131.199234 37.252422,131.364243 
	C38.463322,131.758301 39.795540,131.779587 42.006172,131.959244 
	C48.616245,131.952118 55.229904,132.073273 61.835018,131.888718 
	C65.670486,131.781555 67.451683,133.199051 66.537895,137.798935 
	C66.383385,138.443085 66.094933,139.086975 66.093735,139.731400 
	C66.050018,163.216202 66.006050,186.701141 66.084633,210.185638 
	C66.088989,211.485107 67.140045,212.781052 67.916306,214.032303 
	C67.916306,214.032303 67.961884,214.244873 68.279068,214.952240 
	C69.795326,215.350204 71.303505,216.050095 72.829308,216.090897 
	C77.903481,216.226624 82.983994,216.125534 88.530533,216.400803 
z"/>
<path fill="#F7FBFC" opacity="1.000000" stroke="none" 
	d="
M168.804535,152.241562 
	C176.508347,155.450500 184.365555,157.999252 190.545624,164.380249 
	C199.309006,173.428482 200.408127,183.773605 197.880920,195.955170 
	C195.046799,200.303543 192.302811,203.932465 189.558823,207.561386 
	C189.558823,207.561386 189.716736,207.625793 189.451935,207.653824 
	C188.757629,208.104080 188.328125,208.526306 187.898621,208.948517 
	C187.898621,208.948532 187.962036,208.969269 187.612396,209.029449 
	C181.498032,211.066818 175.861679,213.663879 169.941406,214.889938 
	C158.219345,217.317520 146.541946,215.584244 135.001236,212.950714 
	C135.001236,212.950714 135.002838,213.010315 134.860703,212.741806 
	C134.131851,212.375412 133.545135,212.277527 132.958420,212.179626 
	C132.958420,212.179626 132.525467,212.038132 132.144745,211.747986 
	C131.208908,211.200623 130.653778,210.943390 130.090576,210.439102 
	C129.839798,209.775589 129.597061,209.359131 129.312454,208.488419 
	C129.303070,204.381149 129.335571,200.728119 129.504776,196.959457 
	C129.548981,196.537384 129.456512,196.230972 129.319977,195.615860 
	C129.304001,194.893387 129.332062,194.479584 129.516510,193.885468 
	C129.565186,193.132874 129.457474,192.560577 129.302124,191.639465 
	C129.284485,190.587433 129.314438,189.884247 129.661118,189.158936 
	C130.391861,189.047775 130.805878,188.958755 131.423233,188.899216 
	C131.626572,188.928680 132.037445,188.920929 132.037445,188.920929 
	C132.037445,188.920929 131.880173,189.089447 132.022964,189.454803 
	C132.801514,190.193024 133.437286,190.565887 134.073044,190.938766 
	C134.282883,191.017212 134.492737,191.095673 135.030365,191.292206 
	C135.358139,191.410294 135.372452,191.469650 135.372452,191.469650 
	C137.915405,192.534515 140.458374,193.599396 143.500000,195.170990 
	C150.855484,196.148087 157.716125,196.964203 164.566849,196.887863 
	C166.751648,196.863525 168.910034,194.470169 171.080490,193.160797 
	C174.947830,189.917480 175.781113,184.035217 172.028717,180.833618 
	C168.317352,177.667023 163.851059,175.317596 159.529465,172.950073 
	C153.358459,169.569382 146.720016,166.962143 140.825211,163.177322 
	C133.576782,158.523422 129.498627,151.511429 128.984879,141.852509 
	C130.359955,135.372787 131.769257,129.730560 133.178543,124.088318 
	C133.178543,124.088318 133.084534,124.081978 133.364990,123.990158 
	C133.807602,123.321571 133.969757,122.744812 134.131912,122.168045 
	C135.860306,120.785652 137.822113,119.611610 139.275345,117.983589 
	C144.626862,111.988411 152.034424,111.624268 159.126144,110.679382 
	C169.888260,109.245453 180.597687,109.615364 191.160645,112.576675 
	C193.863556,113.334435 194.929779,114.548599 194.880798,117.395378 
	C194.813217,121.323929 195.230820,125.260841 195.299225,129.774933 
	C194.903351,131.727051 194.648865,133.098404 194.300095,134.977921 
	C184.269363,129.128265 174.136673,126.271919 163.032486,129.111359 
	C162.427216,129.184433 161.821960,129.257507 160.795517,129.530960 
	C160.374344,129.731339 160.217346,129.954742 160.217346,129.954742 
	C160.217346,129.954742 160.049484,129.889633 159.668900,130.006561 
	C150.908798,138.413544 151.295807,142.823425 160.874893,148.202713 
	C160.874893,148.202713 160.877914,148.131134 161.043030,148.419937 
	C163.740280,149.886353 166.272415,151.063950 168.804535,152.241562 
M136.425888,200.322311 
	C140.288605,201.277481 144.165039,202.454361 148.376999,199.770187 
	C143.509064,197.880966 139.211716,196.213181 133.633347,194.048233 
	C134.647202,196.734039 135.236145,198.294220 136.425888,200.322311 
z"/>
<path fill="#F8FCFC" opacity="1.000000" stroke="none" 
	d="
M38.489231,128.965530 
	C38.617859,123.619736 38.746483,118.273949 39.456463,112.502625 
	C63.052620,112.078789 86.067474,112.100769 109.082123,112.040390 
	C110.769936,112.035965 112.456192,111.436356 114.537903,111.139786 
	C116.589462,111.665001 118.246284,112.163895 120.684845,112.898178 
	C120.105606,118.981781 119.527031,125.058502 118.489075,131.062881 
	C110.233711,130.975143 102.435959,130.874680 94.643623,131.035782 
	C93.469429,131.060059 92.320465,132.305115 91.159836,132.985474 
	C91.104248,134.079254 91.048660,135.173050 91.005768,137.127625 
	C90.998741,163.332443 90.979019,188.676468 90.725433,214.160934 
	C90.162971,214.458054 89.834381,214.614731 89.241135,214.690857 
	C88.650909,214.749924 88.325333,214.889542 87.643387,214.829865 
	C80.845299,214.501999 74.403595,214.373428 67.961884,214.244873 
	C67.961884,214.244873 67.916306,214.032303 67.847961,213.622284 
	C67.755661,211.477707 67.731720,209.743164 67.813492,207.550049 
	C67.919212,181.841782 67.919212,156.592056 67.919212,131.078751 
	C58.558514,131.078751 49.779156,131.078751 40.636436,131.013580 
	C39.678459,130.287460 39.083843,129.626495 38.489231,128.965530 
z"/>
<path fill="#3C76B7" opacity="1.000000" stroke="none" 
	d="
M118.948463,131.135223 
	C119.527031,125.058502 120.105606,118.981781 120.684845,112.898178 
	C118.246284,112.163895 116.589462,111.665001 114.063507,111.106186 
	C89.119911,110.989716 65.045456,110.933167 40.970993,110.876617 
	C43.366756,110.249985 45.762524,109.623352 49.050278,109.000427 
	C71.289909,108.995888 92.637558,108.987656 113.985207,108.979416 
	C121.845940,109.183777 122.148674,109.570923 122.050232,116.993530 
	C121.997818,120.945869 122.197479,124.910675 122.480553,128.855698 
	C122.746033,132.555573 121.470169,134.254196 117.485703,132.920181 
	C117.886375,132.106018 118.417419,131.620621 118.948463,131.135223 
z"/>
<path fill="#3278BC" opacity="1.000000" stroke="none" 
	d="
M93.993797,140.994812 
	C94.328247,143.103424 94.944351,145.210892 94.953033,147.320847 
	C95.029564,165.900116 95.035439,184.480057 94.940567,203.059158 
	C94.931076,204.917175 94.115364,206.771103 93.127548,208.459610 
	C92.385834,206.488998 92.023537,204.685974 92.020538,202.882355 
	C91.987297,182.917084 92.009781,162.951721 92.196648,142.835205 
	C92.605972,142.469559 92.812531,142.234604 93.143448,141.796829 
	C93.502892,141.382492 93.737114,141.175919 93.993797,140.994812 
z"/>
<path fill="#3277CB" opacity="1.000000" stroke="none" 
	d="
M113.797867,108.645462 
	C92.637558,108.987656 71.289909,108.995888 49.474419,108.999222 
	C50.568333,108.331406 52.126045,107.103027 53.692463,107.091835 
	C72.302078,106.958817 90.913116,106.979935 109.523315,107.064186 
	C110.887573,107.070358 112.248207,107.877014 113.797867,108.645462 
z"/>
<path fill="#5882B1" opacity="1.000000" stroke="none" 
	d="
M40.999798,131.078751 
	C49.779156,131.078751 58.558514,131.078751 67.919212,131.078751 
	C67.919212,156.592056 67.919212,181.841782 67.629517,207.181686 
	C67.216583,205.292328 66.989326,203.312943 66.986092,201.333191 
	C66.951118,179.924332 66.951370,158.515411 66.942001,137.106506 
	C67.451683,133.199051 65.670486,131.781555 61.835018,131.888718 
	C55.229904,132.073273 48.616245,131.952118 41.523350,131.737335 
	C41.040527,131.515411 40.999798,131.078751 40.999798,131.078751 
z"/>
<path fill="#3E71A8" opacity="1.000000" stroke="none" 
	d="
M135.136292,213.294388 
	C146.541946,215.584244 158.219345,217.317520 169.941406,214.889938 
	C175.861679,213.663879 181.498032,211.066818 187.607635,208.996429 
	C185.799194,210.781830 183.926926,213.693878 181.446152,214.368576 
	C167.117462,218.265533 152.537415,217.632233 137.987213,215.583389 
	C137.010010,215.445786 136.173370,214.309738 135.136292,213.294388 
z"/>
<path fill="#4172AD" opacity="1.000000" stroke="none" 
	d="
M163.393372,129.301605 
	C174.136673,126.271919 184.269363,129.128265 194.300095,134.977921 
	C194.648865,133.098404 194.903351,131.727051 195.459900,130.159256 
	C195.740097,131.924911 196.108795,134.032166 195.465393,135.763290 
	C195.264679,136.303360 191.985321,136.438766 190.701508,135.716873 
	C182.291122,130.987686 173.276108,129.227127 163.393372,129.301605 
z"/>
<path fill="#4476B3" opacity="1.000000" stroke="none" 
	d="
M92.017197,142.986374 
	C92.009781,162.951721 91.987297,182.917084 92.020538,202.882355 
	C92.023537,204.685974 92.385834,206.488998 92.791321,208.648926 
	C93.018509,209.443817 93.035637,209.882111 93.047997,211.029846 
	C93.047501,212.501190 93.051765,213.263046 93.056038,214.024918 
	C92.577660,214.324173 92.099281,214.623444 91.325500,214.977448 
	C91.030098,215.032181 90.986267,214.984726 90.993935,214.743256 
	C91.001602,214.501801 90.959305,214.020493 90.959305,214.020493 
	C90.979019,188.676468 90.998741,163.332443 91.085083,137.531738 
	C91.966873,138.225464 92.782051,139.375870 93.795517,140.760529 
	C93.737114,141.175919 93.502892,141.382492 92.963440,141.948181 
	C92.404884,142.494995 92.198700,142.729858 92.017197,142.986374 
z"/>
<path fill="#2664AB" opacity="1.000000" stroke="none" 
	d="
M66.739944,137.452728 
	C66.951370,158.515411 66.951118,179.924332 66.986092,201.333191 
	C66.989326,203.312943 67.216583,205.292328 67.523804,207.640244 
	C67.731720,209.743164 67.755661,211.477707 67.741753,213.645447 
	C67.140045,212.781052 66.088989,211.485107 66.084633,210.185638 
	C66.006050,186.701141 66.050018,163.216202 66.093735,139.731400 
	C66.094933,139.086975 66.383385,138.443085 66.739944,137.452728 
z"/>
<path fill="#2E6293" opacity="1.000000" stroke="none" 
	d="
M40.644093,110.909698 
	C65.045456,110.933167 89.119911,110.989716 113.668777,111.079857 
	C112.456192,111.436356 110.769936,112.035965 109.082123,112.040390 
	C86.067474,112.100769 63.052620,112.078789 39.582668,112.051239 
	C39.127522,112.025375 39.091171,111.926811 39.040443,111.696686 
	C38.989716,111.466553 39.004864,111.021736 39.004864,111.021736 
	C39.442307,110.995415 39.879749,110.969093 40.644093,110.909698 
z"/>
<path fill="#4172AD" opacity="1.000000" stroke="none" 
	d="
M160.840393,147.835114 
	C151.295807,142.823425 150.908798,138.413544 159.622864,130.083923 
	C159.933273,130.864090 160.252899,132.078278 159.833160,132.444092 
	C154.029312,137.502243 158.404526,141.935684 160.567627,146.514038 
	C160.704880,146.804550 160.729111,147.148438 160.840393,147.835114 
z"/>
<path fill="#4170A8" opacity="1.000000" stroke="none" 
	d="
M170.698410,193.153198 
	C168.910034,194.470169 166.751648,196.863525 164.566849,196.887863 
	C157.716125,196.964203 150.855484,196.148087 143.813385,195.403534 
	C144.591553,194.923370 145.688446,194.309525 146.497818,194.574356 
	C154.649475,197.241791 162.539886,196.322403 170.698410,193.153198 
z"/>
<path fill="#3E71A8" opacity="1.000000" stroke="none" 
	d="
M189.930542,207.592484 
	C192.302811,203.932465 195.046799,200.303543 197.957748,196.376862 
	C197.981628,198.379150 198.669220,201.331085 197.497650,202.824020 
	C195.806534,204.978973 192.766663,206.075470 189.930542,207.592484 
z"/>
<path fill="#5882B1" opacity="1.000000" stroke="none" 
	d="
M68.120476,214.598557 
	C74.403595,214.373428 80.845299,214.501999 87.664993,215.101074 
	C88.049347,215.752808 88.055710,215.934021 88.062073,216.115234 
	C82.983994,216.125534 77.903481,216.226624 72.829308,216.090897 
	C71.303505,216.050095 69.795326,215.350204 68.120476,214.598557 
z"/>
<path fill="#426FA2" opacity="1.000000" stroke="none" 
	d="
M118.489090,131.062881 
	C118.417419,131.620621 117.886375,132.106018 117.167557,132.785858 
	C108.654251,132.983566 100.328728,132.986832 91.581512,132.987793 
	C92.320465,132.305115 93.469429,131.060059 94.643623,131.035782 
	C102.435959,130.874680 110.233711,130.975143 118.489090,131.062881 
z"/>
<path fill="#34669E" opacity="1.000000" stroke="none" 
	d="
M132.799576,124.086060 
	C131.769257,129.730560 130.359955,135.372787 128.888000,141.432159 
	C127.386559,135.393768 127.271698,129.206161 132.799576,124.086060 
z"/>
<path fill="#255C99" opacity="1.000000" stroke="none" 
	d="
M129.368088,197.075104 
	C129.335571,200.728119 129.303070,204.381149 129.183914,208.755646 
	C129.074799,209.673416 129.052338,209.869705 129.029892,210.065994 
	C128.954391,202.677078 128.878891,195.288147 129.001907,187.911163 
	C129.248398,188.342422 129.296402,188.761734 129.344391,189.181061 
	C129.314438,189.884247 129.284485,190.587433 129.209198,191.981796 
	C129.229309,193.137253 129.294724,193.601517 129.360138,194.065796 
	C129.332062,194.479584 129.304001,194.893387 129.238800,195.903931 
	C129.257141,196.692169 129.312622,196.883636 129.368088,197.075104 
z"/>
<path fill="#4172AD" opacity="1.000000" stroke="none" 
	d="
M168.705231,151.899963 
	C166.272415,151.063950 163.740280,149.886353 161.007889,148.426819 
	C164.023865,147.873566 167.076920,147.975052 168.705231,151.899963 
z"/>
<path fill="#3C76B7" opacity="1.000000" stroke="none" 
	d="
M40.636436,131.013580 
	C40.999798,131.078751 41.040527,131.515411 41.059647,131.733398 
	C39.795540,131.779587 38.463322,131.758301 37.252422,131.364243 
	C36.745407,131.199234 36.495735,130.243500 36.129059,129.647263 
	C36.718369,129.429306 37.307678,129.211365 38.193108,128.979462 
	C39.083843,129.626495 39.678459,130.287460 40.636436,131.013580 
z"/>
<path fill="#3C76B7" opacity="1.000000" stroke="none" 
	d="
M38.780853,110.850739 
	C39.004864,111.021736 38.989716,111.466553 38.988472,111.689064 
	C38.084270,111.736420 37.181309,111.561272 36.278343,111.386124 
	C36.294563,111.115044 36.310780,110.843964 36.327000,110.572884 
	C37.070278,110.608498 37.813560,110.644119 38.780853,110.850739 
z"/>
<path fill="#4476B3" opacity="1.000000" stroke="none" 
	d="
M88.296303,216.258026 
	C88.055710,215.934021 88.049347,215.752808 88.021362,215.300385 
	C88.325333,214.889542 88.650909,214.749924 89.609497,214.760406 
	C90.490425,214.935242 90.738342,214.959976 90.986267,214.984726 
	C90.986267,214.984726 91.030098,215.032181 91.052284,215.056854 
	C90.226494,215.521286 89.378510,215.961044 88.296303,216.258026 
z"/>
<path fill="#3278BC" opacity="1.000000" stroke="none" 
	d="
M93.318375,213.910126 
	C93.051765,213.263046 93.047501,212.501190 93.060013,211.358658 
	C93.244774,211.917114 93.412750,212.856216 93.318375,213.910126 
z"/>
<path fill="#255C99" opacity="1.000000" stroke="none" 
	d="
M131.989288,188.658768 
	C132.037445,188.920929 131.626572,188.928680 131.312683,188.637115 
	C130.573059,187.983612 130.147339,187.621689 129.721634,187.259766 
	C130.461456,187.638718 131.201294,188.017654 131.989288,188.658768 
z"/>
<path fill="#BAD5EC" opacity="1.000000" stroke="none" 
	d="
M129.627579,187.318665 
	C130.147339,187.621689 130.573059,187.983612 131.109344,188.607635 
	C130.805878,188.958755 130.391861,189.047775 129.661118,189.158936 
	C129.296402,188.761734 129.248398,188.342422 129.264160,187.608505 
	C129.327927,187.293915 129.533524,187.377579 129.627579,187.318665 
z"/>
<path fill="#3E71A8" opacity="1.000000" stroke="none" 
	d="
M130.098648,210.686157 
	C130.653778,210.943390 131.208908,211.200623 131.918091,211.725723 
	C131.247940,211.638138 130.423721,211.282654 129.630081,210.735321 
	C129.660675,210.543472 130.098648,210.686172 130.098648,210.686157 
z"/>
<path fill="#BAD5EC" opacity="1.000000" stroke="none" 
	d="
M133.954651,190.686142 
	C133.437286,190.565887 132.801514,190.193024 132.043945,189.568115 
	C132.560181,189.688568 133.198227,190.061035 133.954651,190.686142 
z"/>
<path fill="#3E71A8" opacity="1.000000" stroke="none" 
	d="
M188.198151,208.862640 
	C188.328125,208.526306 188.757629,208.104080 189.480194,207.573364 
	C189.348083,207.902191 188.922897,208.339478 188.198151,208.862640 
z"/>
<path fill="#BAD5EC" opacity="1.000000" stroke="none" 
	d="
M130.090576,210.439117 
	C130.098648,210.686172 129.660675,210.543472 129.455399,210.436249 
	C129.250122,210.329025 129.213104,210.135406 129.121490,210.100708 
	C129.052338,209.869705 129.074799,209.673416 129.225800,209.209900 
	C129.597061,209.359131 129.839798,209.775589 130.090576,210.439117 
z"/>
<path fill="#34669E" opacity="1.000000" stroke="none" 
	d="
M133.912613,122.361778 
	C133.969757,122.744812 133.807602,123.321571 133.362885,124.037216 
	C133.284668,123.635910 133.488998,123.095711 133.912613,122.361778 
z"/>
<path fill="#3E71A8" opacity="1.000000" stroke="none" 
	d="
M133.195206,212.339264 
	C133.545135,212.277527 134.131851,212.375412 134.888428,212.730865 
	C134.516205,212.825272 133.974091,212.662094 133.195206,212.339264 
z"/>
<path fill="#4172AD" opacity="1.000000" stroke="none" 
	d="
M160.260269,129.939911 
	C160.217346,129.954742 160.374344,129.731339 160.418121,129.794739 
	C160.461884,129.858124 160.303192,129.925079 160.260269,129.939911 
z"/>
<path fill="#BAD5EC" opacity="1.000000" stroke="none" 
	d="
M135.326874,191.315842 
	C135.372452,191.469650 135.358139,191.410294 135.336151,191.431641 
	C135.314163,191.452988 135.526077,191.091721 135.526077,191.091721 
	C135.526077,191.091721 135.281296,191.162033 135.326874,191.315842 
z"/>
<path fill="#FCFCF6" opacity="1.000000" stroke="none" 
	d="
M136.125488,200.088364 
	C135.236145,198.294220 134.647202,196.734039 133.633347,194.048233 
	C139.211716,196.213181 143.509064,197.880966 148.376999,199.770187 
	C144.165039,202.454361 140.288605,201.277481 136.125488,200.088364 
z"/>
<path fill="#BAD5EC" opacity="1.000000" stroke="none" 
	d="
M129.516510,193.885468 
	C129.294724,193.601517 129.229309,193.137253 129.256821,192.330627 
	C129.457474,192.560577 129.565186,193.132874 129.516510,193.885468 
z"/>
<path fill="#BAD5EC" opacity="1.000000" stroke="none" 
	d="
M129.504776,196.959457 
	C129.312622,196.883636 129.257141,196.692169 129.282837,196.212616 
	C129.456512,196.230972 129.548981,196.537384 129.504776,196.959457 
z"/>
<path fill="#5882B1" opacity="1.000000" stroke="none" 
	d="
M90.993935,214.743256 
	C90.738342,214.959976 90.490425,214.935242 89.874153,214.840973 
	C89.834381,214.614731 90.162971,214.458054 90.725433,214.160934 
	C90.959305,214.020493 91.001602,214.501801 90.993935,214.743256 
z"/>
<path fill="#2F76C4" opacity="1.000000" stroke="none" 
	d="
M92.196648,142.835205 
	C92.198700,142.729858 92.404884,142.494995 92.815765,142.130463 
	C92.812531,142.234604 92.605972,142.469559 92.196648,142.835205 
z"/>
</svg>